<svg xmlns="http://www.w3.org/2000/svg" width="954.209" height="240" viewBox="0 0 954.209 240"><path d="M0 102.602h66.114v128.652h43.825V102.602h58.627V58.789H0v43.813zm464.523-43.81h-82.868v172.46h43.817V102.604h39.051c23.097 0 41.885 18.788 41.885 41.889v86.76h43.817v-86.76c0-47.264-38.442-85.702-85.702-85.702v.001zm403.255 0h-82.876v172.46h43.82V102.604h39.056c23.097 0 41.885 18.788 41.885 41.889v86.76h43.816v-86.76c0-47.264-38.453-85.702-85.7-85.702l-.001.001zM313.587 187.437H274.53c-23.092 0-41.88-18.788-41.88-41.881V58.789h-43.813v86.768c0 47.252 38.442 85.697 85.693 85.697h82.872V58.79h-43.816v128.649l.001-.002zm369.1-135.095c-48.42 0-86.37 40.842-85.2 92.107.373 16.313 5.173 31.91 12.425 45.088-24.218-28.932-29.183-70.655-8.31-107.83 10.466-18.639 26.46-33.268 44.38-41.944-44.486 8.94-80.363 47.165-79.001 97.498C568.5 194.023 611.879 240 666.784 240c54.9 0 99.413-45.367 99.413-102.129v-.633c0-45.587-38.898-84.895-83.51-84.895v-.001zm-.058 110.699c-3.888 14.987-12.076 25.842-26.08 25.842h-24.878c9.939 0 17.482-6.913 21.487-19.405l5.379-17.203c3.899-13.26 10.612-21.231 25.65-21.231h8.125l-9.683 31.997zm16.722-36.534H663.4c-13.453 0-25.61 3.258-30.797 13.413l.83-2.99c5.997-24.187 22.625-30.722 36.306-30.722h58.343c-2.486 6.535-6.822 20.299-28.73 20.299h-.001z" fill="#004f9f"/><path d="M16.565.442C15.558.284 14.33 0 10.588 0 6.498 0 3.32 1.103 3.32 6.45v10.98c0 5.348 3.178 6.449 7.268 6.449 3.742 0 4.97-.283 5.977-.44.473-.063.63-.221.63-.66v-2.014a.633.633 0 0 0-.63-.63h-6.417c-1.825 0-2.486-.629-2.486-2.706v-4.057h8.526a.631.631 0 0 0 .629-.63v-2.266a.63.63 0 0 0-.629-.628H7.662V6.45c0-2.077.66-2.705 2.486-2.705h6.417c.346 0 .63-.283.63-.629V1.103c0-.442-.157-.6-.63-.661zm49.89.061C65.983.378 63.908 0 61.485 0c-3.775 0-8.903 1.731-8.903 9.627v4.625c0 7.771 5.128 9.627 8.903 9.627 2.423 0 4.498-.379 4.97-.503.41-.125.692-.283.692-.725v-2.107c0-.377-.158-.661-.628-.661h-.064c-1.1.094-3.24.251-4.906.251-2.644 0-4.563-1.51-4.563-5.882V9.627c0-4.467 1.919-5.882 4.563-5.882 1.665 0 3.805.157 4.906.251h.064c.47 0 .628-.282.628-.66V1.227c0-.44-.282-.598-.692-.725v.001zM110.875 0c-5.192 0-8.967 2.895-8.967 9.816v4.247c0 6.92 3.775 9.816 8.966 9.816 5.19 0 8.965-2.895 8.965-9.816V9.816c0-6.92-3.776-9.816-8.965-9.816h.001zm4.56 14.063c0 4.154-1.48 6.01-4.56 6.01-3.084 0-4.564-1.856-4.564-6.01V9.816c0-4.152 1.48-6.008 4.563-6.008 3.082 0 4.561 1.856 4.561 6.008v4.247zm53.038 6.071h-5.787c-1.825 0-2.455-.628-2.455-2.705V.882a.631.631 0 0 0-.629-.63h-3.114a.633.633 0 0 0-.63.63v16.547c0 5.35 3.178 6.45 7.268 6.45 1.667 0 4.403-.221 5.347-.44.472-.094.63-.221.63-.66v-2.014a.632.632 0 0 0-.63-.63v-.001zM217.422.442C216.415.284 215.187 0 211.445 0c-4.09 0-7.268 1.103-7.268 6.45v10.98c0 5.348 3.177 6.449 7.268 6.449 3.742 0 4.97-.283 5.977-.44.472-.063.63-.221.63-.66v-2.014a.633.633 0 0 0-.63-.63h-6.417c-1.825 0-2.486-.629-2.486-2.706v-4.057h8.526a.631.631 0 0 0 .628-.63v-2.266a.63.63 0 0 0-.628-.628h-8.526V6.45c0-2.077.66-2.705 2.486-2.705h6.417c.346 0 .63-.283.63-.629V1.103c0-.442-.158-.6-.63-.661zm73.064-.19h-3.114c-.348 0-.63.251-.63.597v22.148c0 .348.282.63.63.63h3.114a.63.63 0 0 0 .628-.63V.85c0-.346-.282-.597-.628-.597V.252zm54.26 0h-2.706a.58.58 0 0 0-.6.597V17.4c0 .188-.093.282-.157.282-.094 0-.188-.094-.25-.252l-7.33-16.17c-.377-.817-.723-1.007-1.384-1.007h-3.399c-.691 0-1.258.566-1.258 1.258v21.487c0 .348.284.63.63.63h2.674c.346 0 .598-.282.598-.63V7.174c0-.188.061-.252.156-.252.096 0 .19.064.284.252l6.984 15.32c.503 1.133 1.164 1.133 1.919 1.133h3.178c.691 0 1.258-.567 1.258-1.258V.849a.578.578 0 0 0-.598-.597h.001zm51.936 0h-15.383c-.346 0-.63.251-.63.597v2.486c0 .346.284.567.63.567h5.506v19.095c0 .348.282.63.628.63h3.115c.345 0 .63-.282.63-.63V3.902h5.504c.346 0 .63-.22.63-.567V.85c0-.346-.284-.597-.63-.597V.252zm49.043.19C444.72.284 443.491 0 439.748 0c-4.09 0-7.268 1.103-7.268 6.45v10.98c0 5.348 3.178 6.449 7.268 6.449 3.743 0 4.97-.283 5.977-.44.473-.063.63-.221.63-.66v-2.014a.633.633 0 0 0-.63-.63h-6.417c-1.825 0-2.486-.629-2.486-2.706v-4.057h8.527a.631.631 0 0 0 .628-.63v-2.266a.63.63 0 0 0-.628-.628h-8.527V6.45c0-2.077.661-2.705 2.486-2.705h6.417c.346 0 .63-.283.63-.629V1.103c0-.442-.157-.6-.63-.661zm48.507 13.37c2.583-1.007 4.25-3.084 4.25-6.42V7.11c0-5.379-4.215-7.11-9.06-7.11-2.298 0-4.53.158-6.167.41-.63.093-1.007.314-1.007.943v21.644c0 .348.284.63.63.63h3.147c.346 0 .596-.282.596-.63v-8.524c.722.03 1.982.124 2.8.124h.439l4.53 8.4c.158.315.284.63.63.63h3.839c.253 0 .376-.157.376-.376 0-.064 0-.158-.061-.254l-4.942-9.185zm-.092-6.42c0 2.771-1.48 3.651-4.718 3.651a81.754 81.754 0 0 1-2.801-.094V3.87c.564-.061 2.14-.124 2.8-.124 3.148 0 4.72 1.006 4.72 3.365v.283l-.001-.002zm57.726-7.14h-2.706a.58.58 0 0 0-.599.597V17.4c0 .188-.092.282-.157.282-.093 0-.189-.094-.25-.252l-7.332-16.17C540.446.441 540.1.251 539.44.251h-3.397c-.695 0-1.26.566-1.26 1.258v21.487c0 .348.284.63.63.63h2.674c.346 0 .596-.282.596-.63V7.174c0-.188.065-.252.158-.252.096 0 .188.064.284.252l6.986 15.32c.503 1.133 1.164 1.133 1.917 1.133h3.178c.691 0 1.256-.567 1.256-1.258V.849a.577.577 0 0 0-.595-.597h-.001zm49.767 2.958C600.876.284 598.613 0 597.26 0c-1.356 0-3.62.284-4.376 3.21l-5.157 19.726c0 .061-.03.124-.03.157 0 .313.25.534.564.534h3.336c.28 0 .534-.251.595-.534l1.449-5.979h7.235l1.449 5.98c.06.282.315.533.595.533h3.336c.315 0 .568-.22.568-.534 0-.033-.034-.096-.034-.157L601.633 3.21zm-7.143 10.32l2.267-9.346c.092-.376.188-.503.503-.503.312 0 .408.127.504.503l2.263 9.345h-5.537v.001zM654.89.251h-15.386c-.345 0-.626.251-.626.597v2.486c0 .346.28.567.626.567h5.507v19.095c0 .348.284.63.63.63h3.116a.628.628 0 0 0 .626-.63V3.902h5.507c.345 0 .63-.22.63-.567V.85c0-.346-.285-.597-.63-.597V.251zm39.7 0h-3.113c-.345 0-.63.251-.63.597v22.148c0 .348.285.63.63.63h3.113c.346 0 .63-.282.63-.63V.85c0-.346-.284-.597-.63-.597V.251zM740.2 0c-5.191 0-8.968 2.895-8.968 9.816v4.247c0 6.92 3.777 9.816 8.968 9.816s8.964-2.895 8.964-9.816V9.816c0-6.92-3.773-9.816-8.964-9.816zm4.56 14.063c0 4.154-1.479 6.01-4.56 6.01-3.086 0-4.561-1.856-4.561-6.01V9.816c0-4.152 1.475-6.008 4.56-6.008 3.082 0 4.562 1.856 4.562 6.008v4.247h-.001zM802.299.252h-2.705a.58.58 0 0 0-.6.597V17.4c0 .188-.092.282-.157.282-.092 0-.189-.094-.25-.252l-7.331-16.17c-.377-.817-.723-1.007-1.384-1.007h-3.396a1.26 1.26 0 0 0-1.26 1.258v21.487c0 .348.284.63.63.63h2.674c.346 0 .595-.282.595-.63V7.174c0-.188.066-.252.158-.252.096 0 .188.064.284.252l6.986 15.32c.503 1.133 1.16 1.133 1.917 1.133h3.178a1.26 1.26 0 0 0 1.256-1.258V.849a.577.577 0 0 0-.595-.597zM852.07 3.21C851.312.284 849.05 0 847.696 0c-1.356 0-3.62.284-4.376 3.21l-5.157 19.726c0 .061-.03.124-.03.157 0 .313.25.534.564.534h3.336c.28 0 .534-.251.595-.534l1.449-5.979h7.235l1.449 5.98c.06.282.315.533.595.533h3.336c.315 0 .568-.22.568-.534 0-.033-.034-.096-.034-.157L852.069 3.21h.001zm-7.143 10.32l2.267-9.346c.092-.376.188-.503.503-.503.312 0 .408.127.504.503l2.263 9.345h-5.537v.001zm59.708 6.604h-5.787c-1.825 0-2.455-.628-2.455-2.705V.882a.633.633 0 0 0-.63-.63h-3.113a.633.633 0 0 0-.63.63v16.547c0 5.35 3.178 6.45 7.266 6.45 1.668 0 4.408-.221 5.349-.44.473-.094.63-.221.63-.66v-2.014a.633.633 0 0 0-.63-.63v-.001zm42.528-16.39h6.417a.63.63 0 0 0 .63-.628V1.103c0-.442-.157-.6-.63-.661C952.573.284 951.347 0 947.6 0c-4.088 0-7.266 1.103-7.266 6.45v10.98c0 5.348 3.178 6.449 7.266 6.449 3.747 0 4.973-.283 5.98-.44.472-.063.63-.221.63-.66v-2.014a.633.633 0 0 0-.63-.63h-6.418c-1.825 0-2.486-.629-2.486-2.706v-4.057h8.527a.63.63 0 0 0 .626-.63v-2.266a.628.628 0 0 0-.626-.628h-8.527V6.45c0-2.077.66-2.705 2.486-2.705l.001-.001z" fill="#9d9d9c"/></svg>