<svg xmlns="http://www.w3.org/2000/svg" width="600" height="340.465" viewBox="0 0 600 340.465"><path fill="#5A6B84" d="M245.1 321.803h-5.818l-4.928 18.347h4.037l1.494-5.557h3.485c5.008 0 8.912-2.594 8.912-7.155 0-1.598-.471-2.831-1.414-3.774-1.337-1.338-3.147-1.861-5.767-1.861zm-1.52 9.252h-2.75l1.493-5.61h2.62c1.207 0 1.966.263 2.517.814.394.393.602.917.602 1.52 0 2.07-1.808 3.276-4.482 3.276zm21.84-9.567c-6.58 0-11.034 5.373-11.034 10.851 0 4.614 3.328 8.126 8.387 8.126 6.578 0 11.035-5.374 11.035-10.851 0-4.613-3.329-8.126-8.388-8.126zm-2.176 15.255c-3.014 0-4.665-1.94-4.665-4.666 0-3.171 2.517-6.867 6.37-6.867 3.014 0 4.665 1.94 4.665 4.665 0 3.172-2.517 6.868-6.37 6.868zm-36.601-11.664c1.782 0 3.014.682 4.404 1.966l2.777-2.779c-1.546-1.65-3.722-2.725-6.867-2.725-3.93 0-7.286 2.306-7.286 6.054 0 2.7 2.123 3.984 4.509 4.955 2.463.995 3.118 1.519 3.118 2.41 0 1.154-1.18 1.914-2.804 1.914-2.098 0-3.696-.839-5.139-2.411l-3.039 2.568c1.73 2.229 4.456 3.382 7.994 3.382 3.853 0 7.286-2.254 7.286-6.107 0-2.674-1.886-3.932-4.402-4.954-2.49-1.023-3.225-1.442-3.225-2.412 0-.918.97-1.86 2.674-1.86zm-43.58-30.413h3.355l4.22-3.146-3.355-1.494-4.22 4.64zm55.27 1.441l-4.93 18.348h13.186l.996-3.67h-9.149l3.933-14.678h-4.037zm-6.665 7.811c0-4.613-3.328-8.125-8.388-8.125-6.579 0-11.034 5.373-11.034 10.85 0 4.614 3.328 8.126 8.388 8.126 6.577 0 11.034-5.373 11.034-10.85zm-15.228 2.464c0-3.172 2.516-6.868 6.37-6.868 3.013 0 4.664 1.94 4.664 4.667 0 3.171-2.516 6.867-6.369 6.867-3.014 0-4.665-1.94-4.665-4.666zm51.83-6.684l.97-3.59H255.53l-4.928 18.347h13.84l.97-3.59h-9.855l1.047-3.88h8.52l.97-3.539h-8.519l.996-3.748h9.698zm-91.73 22.105h-5.347l-4.928 18.347h6.814c4.247 0 7.418-1.18 9.62-3.381 1.965-1.965 3.014-4.482 3.014-7.234 0-2.228-.628-4.01-1.992-5.373-1.39-1.39-3.616-2.36-7.181-2.36zm3.145 12.476c-1.468 1.467-3.696 2.228-6.133 2.228h-2.281l2.987-11.061h1.967c2.07 0 3.407.524 4.22 1.336.682.682 1.074 1.652 1.074 2.91 0 1.782-.655 3.408-1.834 4.587zm23.933-34.765c2.202 0 3.433.996 4.508 2.517l3.329-2.333c-1.467-2.411-3.827-3.905-7.339-3.905-6.186 0-11.165 5.137-11.165 10.983 0 4.9 3.643 7.993 8.649 7.993 3.067 0 5.19-1.18 6.947-2.804l-2.623-2.726c-1.363 1.1-2.516 1.809-4.298 1.809-2.622 0-4.481-1.783-4.481-4.43 0-3.906 3.118-7.104 6.473-7.104zm-15.81 7.47l.969-3.538h-8.519l.996-3.748h9.698l.97-3.59h-13.708l-4.929 18.347h13.84l.97-3.59h-9.855l1.047-3.88h8.52zm13.48 25.172c-.392 1.494-.996 2.621-1.782 3.408-.786.76-1.782 1.153-2.988 1.153-2.071 0-3.198-1.232-3.198-3.04 0-.761.104-1.364.288-1.993l2.647-9.881h-4.035l-2.543 9.514c-.29 1.022-.446 2.018-.446 2.936 0 3.906 2.622 6.186 6.867 6.186 2.726 0 4.745-.76 6.239-2.255 1.285-1.284 2.202-3.093 2.83-5.452l2.937-10.93h-4.037l-2.78 10.354zm97.347-17.701h13.84l.97-3.59h-9.855l1.047-3.88h8.52l.97-3.539h-8.52l.997-3.748h9.698l.969-3.59h-13.708l-4.928 18.347zm161.048-10.274l-2.647-7.758h-4.194l-4.928 18.347h4.036l3.198-11.9 2.935 7.759h.106l7.181-7.837-3.198 11.978h4.09l4.927-18.347h-4.666l-6.84 7.758zm-12.324-4.168l.97-3.59H434.62l-4.929 18.347h13.84l.97-3.59h-9.855l1.047-3.88h8.52l.97-3.539h-8.519l.996-3.748h9.698zm41.767 0l.97-3.59h-13.709l-4.928 18.347h13.84l.97-3.59h-9.855l1.047-3.88h8.52l.97-3.539h-8.519l.996-3.748h9.698zm24.15.131h5.584l-3.932 14.626h4.036l3.933-14.626h5.582l.996-3.721h-15.202l-.996 3.721zm-92.266-.34c2.308 0 3.749.943 4.824 2.123l2.988-2.647c-1.286-1.678-3.618-3.173-7.498-3.173-6.604 0-11.453 5.295-11.453 11.01 0 5.478 4.429 7.968 8.622 7.968 2.753 0 4.85-.708 6.66-1.73l2.593-9.148h-7.967l-.945 3.486h4.063l-.865 2.989a7.707 7.707 0 0 1-3.275.707c-2.596 0-4.692-1.546-4.692-4.403 0-3.828 3.014-7.183 6.945-7.183zm82.668 8.283l-5.347-11.664h-3.722l-4.929 18.347h3.984l3.224-12.031 5.557 12.031h3.435l4.926-18.347h-3.983l-3.145 11.664zm-119.141-11.664l-3.145 11.664-5.347-11.664h-3.722l-4.928 18.347h3.983l3.225-12.031 5.557 12.031h3.434l4.927-18.347h-3.984zm-86.946 29.101h5.584l-3.933 14.626h4.037l3.932-14.626h5.582l.996-3.721h-15.202l-.996 3.721zm-9.84-29.417h-5.346l-4.928 18.348h6.814c4.247 0 7.418-1.18 9.62-3.382 1.965-1.965 3.014-4.481 3.014-7.233 0-2.229-.628-4.011-1.992-5.373-1.39-1.39-3.616-2.36-7.181-2.36zm3.146 12.477c-1.467 1.468-3.696 2.227-6.133 2.227h-2.281l2.987-11.06h1.968c2.07 0 3.406.524 4.22 1.336.682.681 1.073 1.652 1.073 2.91 0 1.782-.655 3.407-1.834 4.587zm108.9-12.293l-12.816 18.48h4.35l2.778-4.116h7.76l.577 4.115h4.14l-2.91-18.479h-3.879zm-3.276 10.8l4.037-6.055.839 6.055h-4.876zm-54.904-10.668l-6.84 7.758-2.647-7.758h-4.194l-4.929 18.347h4.037l3.198-11.9 2.935 7.759h.106l7.181-7.837-3.198 11.978h4.09l4.927-18.347h-4.666zm-54.463 25.38h-6.684l-4.928 18.347h4.036l1.574-5.87h3.014l2.83 5.87h4.586l-3.118-6.264c3.906-.917 5.924-3.25 5.924-6.553 0-1.493-.498-2.778-1.416-3.696-1.23-1.231-3.092-1.834-5.818-1.834zm-1.441 8.91h-3.592l1.414-5.267h3.382c1.286 0 2.175.262 2.673.76.394.394.578.839.578 1.468 0 2.018-1.94 3.04-4.455 3.04zm71.846-34.422l-12.816 18.48h4.35l2.778-4.116h7.76l.577 4.115h4.14l-2.91-18.479h-3.879zm-3.276 10.8l4.037-6.055.839 6.055h-4.876zm-166.7-36.668c.851 2.84 3.348 5.253 6.135 6.228.667.296 1.43.472 2.291.472h50.895c.861 0 1.624-.176 2.292-.472 2.787-.975 5.283-3.388 6.135-6.228l79.963-261.49c1.109-3.7-.992-6.7-4.692-6.7h-50.613c-3.7 0-7.6 3-8.709 6.7L226.54 155.24l-16.376-75.281c-.898-2.996-3.629-5.503-6.598-6.36a5.696 5.696 0 0 0-1.907-.34h-50.817c-.704 0-1.329.138-1.906.34-2.97.857-5.7 3.364-6.599 6.36l-43.71 144.94L64.31 79.927c-1.11-3.7-5.009-6.7-8.71-6.7H4.989c-3.7 0-5.8 3-4.692 6.7L60.37 333.699c1.11 3.701 5.008 6.7 8.709 6.7h52.042c3.7 0 7.6-2.999 8.71-6.7l41.547-137.77 16.205 74.494zm89.504 0c-1.11 3.7.992 6.7 4.692 6.7h50.613c3.7 0 7.6-3 8.709-6.7l58.031-190.465c1.11-3.7-.99-6.7-4.692-6.7h-50.612c-3.7 0-7.6 3-8.71 6.7l-58.03 190.465zM595.012 73.257h-50.613c-3.7 0-7.6 3-8.709 6.7l-26.09 85.63-18.627-85.63c-1.109-3.7-5.008-6.7-8.709-6.7h-52.919c-3.7 0-7.6 3-8.709 6.7l-58.031 190.466c-1.11 3.7.99 6.7 4.692 6.7h50.612c3.7 0 7.6-3 8.71-6.7l24.372-79.994 17.4 79.994c1.11 3.7 5.01 6.7 8.71 6.7h55.862c3.7 0 7.6-3 8.71-6.7l58.03-190.465c1.11-3.7-.99-6.7-4.691-6.7z"/><path fill="#69ADCC" d="M382.252 61.353c16.942 0 30.677-13.735 30.677-30.677S399.194 0 382.252 0s-30.676 13.734-30.676 30.676 13.734 30.677 30.676 30.677zm134.01 264.146H323.81a4.099 4.099 0 0 0-3.994 3.178l-1.488 6.454a4.098 4.098 0 0 0 3.994 5.02h192.451a4.099 4.099 0 0 0 3.994-3.178l1.488-6.455a4.099 4.099 0 0 0-3.993-5.02z"/></svg>